<svg xmlns="http://www.w3.org/2000/svg" width="93" height="38" fill="none" viewBox="0 0 93 38">
    <path fill="#1B9CFC" d="M19.89 22.422c-.177 2.448-1.083 4.375-2.718 5.781-1.625 1.406-3.771 2.11-6.438 2.11-2.916 0-5.213-.98-6.89-2.938-1.667-1.969-2.5-4.667-2.5-8.094v-1.39c0-2.188.385-4.115 1.156-5.782.77-1.666 1.87-2.942 3.297-3.828 1.437-.896 3.104-1.344 5-1.344 2.625 0 4.74.704 6.344 2.11s2.53 3.38 2.78 5.922h-4.687C15.12 13.5 14.708 12.438 14 11.78c-.698-.666-1.766-1-3.203-1-1.563 0-2.735.563-3.516 1.688-.77 1.114-1.166 2.849-1.187 5.203v1.719c0 2.458.37 4.255 1.11 5.39.75 1.136 1.926 1.703 3.53 1.703 1.448 0 2.526-.328 3.235-.984.719-.667 1.13-1.693 1.234-3.078h4.688zM31.51 30c-.209-.406-.36-.912-.453-1.516-1.094 1.22-2.516 1.828-4.266 1.828-1.656 0-3.031-.479-4.125-1.437-1.083-.958-1.625-2.167-1.625-3.625 0-1.792.662-3.167 1.984-4.125 1.334-.958 3.256-1.443 5.766-1.453h2.078v-.969c0-.781-.203-1.406-.61-1.875-.395-.469-1.025-.703-1.89-.703-.76 0-1.36.182-1.797.547-.427.364-.64.864-.64 1.5h-4.516c0-.98.302-1.886.906-2.719.604-.833 1.459-1.484 2.563-1.953 1.104-.48 2.343-.719 3.718-.719 2.084 0 3.735.526 4.954 1.578 1.229 1.042 1.843 2.51 1.843 4.407v7.328c.01 1.604.235 2.817.672 3.64V30H31.51zm-3.735-3.14c.667 0 1.282-.146 1.844-.438.563-.302.98-.703 1.25-1.203v-2.907h-1.687c-2.26 0-3.464.782-3.61 2.344l-.015.266c0 .562.197 1.026.593 1.39.396.365.938.547 1.625.547zm14.368-13.766l.141 1.89c1.198-1.468 2.818-2.203 4.86-2.203 2.177 0 3.671.86 4.484 2.578 1.187-1.718 2.88-2.578 5.078-2.578 1.833 0 3.198.537 4.094 1.61.896 1.062 1.343 2.666 1.343 4.812V30h-4.53V19.219c0-.959-.188-1.657-.563-2.094-.375-.448-1.037-.672-1.985-.672-1.354 0-2.291.646-2.812 1.938L52.267 30h-4.515V19.234c0-.979-.193-1.687-.578-2.125-.386-.437-1.042-.656-1.969-.656-1.281 0-2.208.531-2.781 1.594V30h-4.516V13.094h4.234zM79.37 23.859l2.219-10.765h4.36L81.635 30h-3.782l-3.203-10.64L71.448 30h-3.765L63.37 13.094h4.36l2.203 10.75 3.093-10.75h3.266l3.078 10.765zm6.165 3.922c0-.718.24-1.302.719-1.75.49-.448 1.099-.672 1.828-.672.74 0 1.349.224 1.828.672.49.448.734 1.032.734 1.75 0 .709-.24 1.287-.718 1.735-.48.437-1.094.656-1.844.656-.74 0-1.35-.219-1.828-.656-.48-.448-.719-1.026-.719-1.735z"/>
</svg>
